<svg width="32" height="32" viewBox="0 0 32 32" fill="none" xmlns="http://www.w3.org/2000/svg">
<g style="mix-blend-mode:luminosity">
<rect width="32" height="32" fill="#F6F8FB"/>
<g style="mix-blend-mode:luminosity" opacity="0.6">
<path d="M22.1476 4.28249C22.2855 4.28931 22.4029 4.18305 22.4097 4.04515C22.4165 3.90724 22.3103 3.78992 22.1724 3.7831L22.1476 4.28249ZM6.1286 9.01187C5.22501 9.43965 4.43516 9.42345 3.81338 9.17465C3.18619 8.92369 2.71066 8.42832 2.45621 7.86659C2.20089 7.30294 2.17756 6.69626 2.415 6.21613C2.64752 5.74595 3.15502 5.34763 4.06834 5.2403L4.00998 4.74372C2.96665 4.86632 2.28991 5.34114 1.96681 5.99449C1.64862 6.63789 1.69827 7.40511 2.00076 8.0729C2.30411 8.7426 2.8712 9.33619 3.62763 9.63887C4.38949 9.94372 5.32428 9.94585 6.34255 9.46378L6.1286 9.01187ZM4.06834 5.2403C7.97705 4.78099 18.2959 4.09191 22.1476 4.28249L22.1724 3.7831C18.2791 3.59047 7.92788 4.28333 4.00998 4.74372L4.06834 5.2403Z" fill="#EC612C"/>
<path d="M21.9656 22.3088C24.0964 22.3088 26.1401 21.4623 27.6468 19.9556C29.1535 18.4489 30 16.4053 30 14.2744C30 12.1436 29.1535 10.1 27.6468 8.59327C26.1401 7.08652 24.0964 6.24005 21.9656 6.24005H5.89685C5.8227 6.2408 5.74945 6.25635 5.68139 6.28579C5.61333 6.31521 5.55183 6.35793 5.50049 6.41145C5.45145 6.46669 5.41388 6.53111 5.38997 6.601C5.36607 6.67089 5.3563 6.74483 5.36123 6.81853C5.50769 8.84756 6.4184 10.7455 7.90956 12.1293C9.40072 13.5131 11.3613 14.2797 13.3956 14.2744H21.9656V22.3088Z" fill="#FE8455"/>
<path d="M21.9656 22.3088L13.9312 22.3088C13.9181 21.5315 14.0616 20.7595 14.3531 20.0387C14.6446 19.318 15.0781 18.6634 15.6279 18.1136C16.1775 17.5638 16.8323 17.1304 17.553 16.8389C18.2737 16.5474 19.0458 16.4039 19.8231 16.417H21.9656" fill="#FE8455"/>
<path d="M21.9656 14.2744C21.9656 13.0271 21.6752 11.797 21.1174 10.6813C20.5596 9.56573 19.7498 8.5953 18.7519 7.84693L16.6094 6.24005" fill="#FE8455"/>
<path d="M21.9656 14.2744H30H21.9656Z" fill="#FE8455"/>
<path d="M21.9656 14.2744L27.6433 8.59675L21.9656 14.2744Z" fill="#FE8455"/>
<path d="M27.6433 19.9521L21.9656 14.2744L27.6433 19.9521Z" fill="#FE8455"/>
<path d="M13.6635 9.4538C13.5156 9.4538 13.3957 9.33389 13.3957 9.18599C13.3957 9.03808 13.5156 8.91817 13.6635 8.91817" fill="#FE8455"/>
<path d="M13.6635 9.4538C13.8114 9.4538 13.9313 9.33389 13.9313 9.18599C13.9313 9.03808 13.8114 8.91817 13.6635 8.91817" fill="#FE8455"/>
<path d="M13.9839 28.0184V21.3755C13.9839 21.3682 13.9914 21.3634 13.998 21.3664L20.0439 24.1146C20.055 24.1196 20.0492 24.1398 20.0372 24.1375C19.3517 24.0073 15.544 23.5049 14.0041 28.0201C14.0004 28.0308 13.9839 28.0297 13.9839 28.0184Z" fill="#FE8455"/>
<mask id="mask0_670_12478" style="mask-type:alpha" maskUnits="userSpaceOnUse" x="5" y="6" width="25" height="17">
<path d="M21.9656 22.3088C24.0964 22.3088 26.1401 21.4623 27.6468 19.9556C29.1535 18.4489 30 16.4053 30 14.2744C30 12.1436 29.1535 10.1 27.6468 8.59327C26.1401 7.08652 24.0964 6.24005 21.9656 6.24005H5.89685C5.8227 6.2408 5.74945 6.25635 5.68139 6.28579C5.61333 6.31521 5.55183 6.35793 5.50049 6.41145C5.45145 6.46669 5.41388 6.53111 5.38997 6.601C5.36607 6.67089 5.3563 6.74483 5.36123 6.81853C5.50769 8.84756 6.4184 10.7455 7.90956 12.1293C9.40072 13.5131 11.3613 14.2797 13.3956 14.2744H21.9656V22.3088Z" fill="#FE8455"/>
<path d="M21.9656 22.3088L16.2557 22.3088C14.9656 22.3088 13.8695 21.2347 14.3531 20.0387C14.6446 19.318 15.0781 18.6634 15.6279 18.1136C16.1775 17.5638 16.8323 17.1304 17.553 16.8389C18.2737 16.5474 19.0458 16.4039 19.8231 16.417H21.9656" fill="#FE8455"/>
<path d="M21.9656 14.2744C21.9656 13.0271 21.6752 11.797 21.1174 10.6813C20.5596 9.56573 19.7498 8.5953 18.7519 7.84693L16.6094 6.24005" fill="#FE8455"/>
<path d="M21.9656 14.2744H30H21.9656Z" fill="#FE8455"/>
<path d="M21.9656 14.2744L27.6433 8.59675L21.9656 14.2744Z" fill="#FE8455"/>
<path d="M27.6433 19.9521L21.9656 14.2744L27.6433 19.9521Z" fill="#FE8455"/>
<path d="M13.6635 9.4538C13.5156 9.4538 13.3957 9.33389 13.3957 9.18599C13.3957 9.03808 13.5156 8.91817 13.6635 8.91817" fill="#FE8455"/>
<path d="M13.6635 9.4538C13.8114 9.4538 13.9313 9.33389 13.9313 9.18599C13.9313 9.03808 13.8114 8.91817 13.6635 8.91817" fill="#FE8455"/>
</mask>
<g mask="url(#mask0_670_12478)">
<path fill-rule="evenodd" clip-rule="evenodd" d="M16.1771 6.00301C16.0342 5.91726 15.8488 5.96361 15.763 6.10653C15.6773 6.24946 15.7236 6.43484 15.8665 6.52059L18.8711 8.32331C19.9044 9.10098 20.6904 10.0294 21.2677 11.1838C21.8479 12.3444 22.15 13.6241 22.15 14.9217V23.3511C22.15 23.5178 22.2851 23.6529 22.4518 23.6529C22.6185 23.6529 22.7536 23.5178 22.7536 23.3511V15.6159L28.4915 20.9688C28.6133 21.0825 28.8043 21.0759 28.918 20.954C29.0317 20.8321 29.0251 20.6411 28.9032 20.5274L23.2177 15.2235H30.8854C31.052 15.2235 31.1872 15.0883 31.1872 14.9217C31.1872 14.755 31.052 14.6199 30.8854 14.6199H23.2361L28.8996 9.50374C29.0233 9.39201 29.033 9.20117 28.9213 9.07748C28.8096 8.95379 28.6187 8.9441 28.495 9.05583L22.7294 14.2641C22.6438 13.1 22.3314 11.9617 21.8075 10.9139C21.1846 9.668 20.3325 8.66487 19.2209 7.83115C19.2126 7.82493 19.204 7.81914 19.1951 7.8138L16.1771 6.00301Z" fill="#FFC3AC"/>
<ellipse cx="12.64" cy="9.03992" rx="0.56" ry="0.56" fill="black"/>
</g>
</g>
</g>
</svg>
