<svg width="24" height="24" viewBox="0 0 24 24" fill="none" xmlns="http://www.w3.org/2000/svg">
<path fill-rule="evenodd" clip-rule="evenodd" d="M18.8529 5.44621C19.0708 5.1526 19.0466 4.73594 18.7803 4.46967C18.4874 4.17678 18.0126 4.17678 17.7197 4.46967L11.5 10.6893L5.03033 4.21967L4.94621 4.14705C4.6526 3.9292 4.23594 3.9534 3.96967 4.21967L3.89705 4.30379C3.6792 4.5974 3.7034 5.01406 3.96967 5.28033L10.439 11.75L3.96967 18.2197L3.89705 18.3038C3.6792 18.5974 3.7034 19.0141 3.96967 19.2803C4.26256 19.5732 4.73744 19.5732 5.03033 19.2803L11.25 13.0607L17.7197 19.5303L17.8038 19.6029C18.0974 19.8208 18.5141 19.7966 18.7803 19.5303L18.8529 19.4462C19.0708 19.1526 19.0466 18.7359 18.7803 18.4697L12.311 12L18.7803 5.53033L18.8529 5.44621Z" fill="#2C2C2E"/>
</svg>
