<svg width="25" height="24" viewBox="0 0 25 24" fill="none" xmlns="http://www.w3.org/2000/svg">
<path fill-rule="evenodd" clip-rule="evenodd" d="M17.077 22.3691H8.253C4.812 22.3691 2.5 19.9541 2.5 16.3601V8.04611C2.5 4.45211 4.812 2.03711 8.253 2.03711H11.992C12.406 2.03711 12.742 2.37311 12.742 2.78711C12.742 3.20111 12.406 3.53711 11.992 3.53711H8.253C5.669 3.53711 4 5.30711 4 8.04611V16.3601C4 19.0991 5.669 20.8691 8.253 20.8691H17.077C19.661 20.8691 21.331 19.0991 21.331 16.3601V12.3321C21.331 11.9181 21.667 11.5821 22.081 11.5821C22.495 11.5821 22.831 11.9181 22.831 12.3321V16.3601C22.831 19.9541 20.518 22.3691 17.077 22.3691Z" fill="#BCBCC4"/>
<path fill-rule="evenodd" clip-rule="evenodd" d="M9.36762 15.4285H12.3446C12.7246 15.4285 13.0806 15.2815 13.3496 15.0125L20.8586 7.50349C21.1666 7.19549 21.3366 6.78549 21.3366 6.34949C21.3366 5.91249 21.1666 5.50149 20.8586 5.19349L19.6416 3.97649C19.0046 3.34149 17.9686 3.34149 17.3306 3.97649L9.85762 11.4495C9.59862 11.7085 9.45162 12.0525 9.44262 12.4175L9.36762 15.4285ZM12.3446 16.9285H8.59862C8.39662 16.9285 8.20262 16.8465 8.06162 16.7015C7.92062 16.5575 7.84362 16.3625 7.84862 16.1595L7.94262 12.3805C7.96162 11.6285 8.26462 10.9215 8.79662 10.3885H8.79762L16.2706 2.91549C17.4926 1.69549 19.4796 1.69549 20.7016 2.91549L21.9186 4.13249C22.5116 4.72449 22.8376 5.51149 22.8366 6.34949C22.8366 7.18749 22.5106 7.97349 21.9186 8.56449L14.4096 16.0735C13.8586 16.6245 13.1246 16.9285 12.3446 16.9285Z" fill="#BCBCC4"/>
<path fill-rule="evenodd" clip-rule="evenodd" d="M20.2308 9.91685C20.0388 9.91685 19.8468 9.84385 19.7008 9.69685L15.1348 5.13085C14.8418 4.83785 14.8418 4.36285 15.1348 4.06985C15.4278 3.77685 15.9018 3.77685 16.1948 4.06985L20.7608 8.63685C21.0538 8.92985 21.0538 9.40385 20.7608 9.69685C20.6148 9.84385 20.4228 9.91685 20.2308 9.91685Z" fill="#BCBCC4"/>
</svg>
