<svg width="20" height="20" viewBox="0 0 20 20" fill="none" xmlns="http://www.w3.org/2000/svg">
<mask id="mask0_2065_3098" style="mask-type:luminance" maskUnits="userSpaceOnUse" x="1" y="2" width="18" height="17">
<path fill-rule="evenodd" clip-rule="evenodd" d="M1.66669 2.5H18.7271V18.7508H1.66669V2.5Z" fill="white"/>
</mask>
<g mask="url(#mask0_2065_3098)">
<path fill-rule="evenodd" clip-rule="evenodd" d="M10.1981 18.7509C10.0947 18.7509 9.99224 18.7259 9.89891 18.6751C9.63807 18.5326 3.49391 15.1459 1.99641 10.4843C1.99557 10.4843 1.99557 10.4834 1.99557 10.4834C1.05557 7.54843 2.10224 3.8601 5.48141 2.77093C7.06807 2.2576 8.79724 2.48343 10.1956 3.36593C11.5506 2.50927 13.3506 2.2726 14.9056 2.77093C18.2881 3.86177 19.3381 7.54927 18.3989 10.4834C16.9497 15.0918 10.7606 18.5293 10.4981 18.6734C10.4047 18.7251 10.3014 18.7509 10.1981 18.7509Z" fill="#FF6D54"/>
</g>
</svg>
