<svg width="25" height="24" viewBox="0 0 25 24" fill="none" xmlns="http://www.w3.org/2000/svg">
<mask id="mask0_2049_688" style="mask-type:luminance" maskUnits="userSpaceOnUse" x="2" y="3" width="21" height="20">
<path fill-rule="evenodd" clip-rule="evenodd" d="M2.5 3H22.9725V22.501H2.5V3Z" stroke="" fill="white"/>
</mask>
<g mask="url(#mask0_2049_688)">
<path fill-rule="evenodd" clip-rule="evenodd" d="M4.32371 12.1231C5.72571 16.4851 11.2647 20.0121 12.7367 20.8851C14.2137 20.0031 19.7927 16.4371 21.1497 12.1271C22.0407 9.34112 21.2137 5.81212 17.9277 4.75312C16.3357 4.24212 14.4787 4.55312 13.1967 5.54512C12.9287 5.75112 12.5567 5.75512 12.2867 5.55112C10.9287 4.53012 9.15471 4.23112 7.53771 4.75312C4.25671 5.81112 3.43271 9.34012 4.32371 12.1231ZM12.7377 22.5011C12.6137 22.5011 12.4907 22.4711 12.3787 22.4101C12.0657 22.2391 4.69271 18.1751 2.89571 12.5811C2.89471 12.5811 2.89471 12.5801 2.89471 12.5801C1.76671 9.05812 3.02271 4.63212 7.07771 3.32512C8.98171 2.70912 11.0567 2.98012 12.7347 4.03912C14.3607 3.01112 16.5207 2.72712 18.3867 3.32512C22.4457 4.63412 23.7057 9.05912 22.5787 12.5801C20.8397 18.1101 13.4127 22.2351 13.0977 22.4081C12.9857 22.4701 12.8617 22.5011 12.7377 22.5011Z" stroke="" fill="#BCBCC4"/>
</g>
</svg>
