<svg width="25" height="24" viewBox="0 0 25 24" fill="none" xmlns="http://www.w3.org/2000/svg">
<path fill-rule="evenodd" clip-rule="evenodd" d="M12.5 3.5C7.813 3.5 4 7.313 4 12C4 16.687 7.813 20.5 12.5 20.5C17.187 20.5 21 16.687 21 12C21 7.313 17.187 3.5 12.5 3.5ZM12.5 22C6.986 22 2.5 17.514 2.5 12C2.5 6.486 6.986 2 12.5 2C18.014 2 22.5 6.486 22.5 12C22.5 17.514 18.014 22 12.5 22Z" stroke="" fill="#BCBCC4"/>
<path fill-rule="evenodd" clip-rule="evenodd" d="M16.4481 13.0137C15.8951 13.0137 15.4431 12.5667 15.4431 12.0137C15.4431 11.4607 15.8861 11.0137 16.4381 11.0137H16.4481C17.0011 11.0137 17.4481 11.4607 17.4481 12.0137C17.4481 12.5667 17.0011 13.0137 16.4481 13.0137Z" stroke="" fill="#BCBCC4"/>
<path fill-rule="evenodd" clip-rule="evenodd" d="M12.4386 13.0137C11.8856 13.0137 11.4346 12.5667 11.4346 12.0137C11.4346 11.4607 11.8766 11.0137 12.4296 11.0137H12.4386C12.9916 11.0137 13.4386 11.4607 13.4386 12.0137C13.4386 12.5667 12.9916 13.0137 12.4386 13.0137Z" stroke="" fill="#BCBCC4"/>
<path fill-rule="evenodd" clip-rule="evenodd" d="M8.4298 13.0137C7.8768 13.0137 7.4248 12.5667 7.4248 12.0137C7.4248 11.4607 7.8678 11.0137 8.4208 11.0137H8.4298C8.9828 11.0137 9.4298 11.4607 9.4298 12.0137C9.4298 12.5667 8.9828 13.0137 8.4298 13.0137Z" stroke="" fill="#BCBCC4"/>
</svg>
