<svg width="16" height="16" viewBox="0 0 16 16" fill="none" xmlns="http://www.w3.org/2000/svg">
<rect width="16" height="16" rx="8" fill="#999999"/>
<path d="M4.9 8.97237C4.84432 8.97788 4.78787 8.9807 4.73077 8.9807C3.77489 8.9807 3 8.19061 3 7.21599C3 6.24137 3.77489 5.45129 4.73077 5.45129C5.223 5.45129 5.66724 5.6608 5.98239 5.99713C6.32867 5.21294 7.1018 4.66699 7.99999 4.66699C8.89819 4.66699 9.67132 5.21295 10.0176 5.99715C10.3327 5.6608 10.777 5.45129 11.2692 5.45129C12.2251 5.45129 13 6.24137 13 7.21599C13 8.19061 12.2251 8.9807 11.2692 8.9807C11.2121 8.9807 11.1557 8.97788 11.1 8.97237V11.3337H4.9V8.97237Z" fill="white"/>
</svg>
