<svg width="24" height="24" viewBox="0 0 24 24" fill="none" xmlns="http://www.w3.org/2000/svg">
<mask id="mask0_2049_673" style="mask-type:luminance" maskUnits="userSpaceOnUse" x="2" y="3" width="21" height="20">
<path fill-rule="evenodd" clip-rule="evenodd" d="M2 3H22.6386V22.1729H2V3Z" stroke="" fill="white"/>
</mask>
<g mask="url(#mask0_2049_673)">
<path fill-rule="evenodd" clip-rule="evenodd" d="M7.99751 4.5C5.51751 4.5 3.49951 6.518 3.49951 8.998V16.175C3.49951 18.655 5.51751 20.673 7.99751 20.673H16.6415C19.1215 20.673 21.1385 18.655 21.1385 16.175V8.998C21.1385 6.518 19.1215 4.5 16.6415 4.5H7.99751ZM16.6415 22.173H7.99751C4.69051 22.173 1.99951 19.482 1.99951 16.175V8.998C1.99951 5.69 4.69051 3 7.99751 3H16.6415C19.9485 3 22.6385 5.69 22.6385 8.998V16.175C22.6385 19.482 19.9485 22.173 16.6415 22.173Z" stroke="" fill="#BCBCC4"/>
</g>
<path fill-rule="evenodd" clip-rule="evenodd" d="M21.149 12.5H3.75C3.336 12.5 3 12.164 3 11.75C3 11.336 3.336 11 3.75 11H21.149C21.563 11 21.899 11.336 21.899 11.75C21.899 12.164 21.563 12.5 21.149 12.5Z" stroke="" fill="#BCBCC4"/>
<rect x="6" y="8" width="3" height="8" rx="1.5" fill="white" stroke="" stroke-width="1.4"/>
</svg>
